<svg version="1.2" xmlns="http://www.w3.org/2000/svg" viewBox="0 0 516 550" width="516" height="550">
	<defs>
		<linearGradient id="g1" x2="1" gradientUnits="userSpaceOnUse" gradientTransform="matrix(300,0,0,658.498,108,175)">
			<stop offset="0" stop-color="#0071f4" stop-opacity="1"/>
			<stop offset="1" stop-color="#005cdc" stop-opacity=".93"/>
		</linearGradient>
		<linearGradient id="g2" x2="1" gradientUnits="userSpaceOnUse" gradientTransform="matrix(300,0,0,649.257,108,175)">
			<stop offset="0" stop-color="#0071f4" stop-opacity="1"/>
			<stop offset="1" stop-color="#005cdc" stop-opacity=".93"/>
		</linearGradient>
		<linearGradient id="g3" x2="1" gradientUnits="userSpaceOnUse" gradientTransform="matrix(300,0,0,394.635,108,175)">
			<stop offset="0" stop-color="#0071f4" stop-opacity="1"/>
			<stop offset="1" stop-color="#005cdc" stop-opacity=".93"/>
		</linearGradient>
		<linearGradient id="g4" x2="1" gradientUnits="userSpaceOnUse" gradientTransform="matrix(300,0,0,648.029,108,175)">
			<stop offset="0" stop-color="#0071f4" stop-opacity="1"/>
			<stop offset="1" stop-color="#005cdc" stop-opacity=".93"/>
		</linearGradient>
		<linearGradient id="g5" x2="1" gradientUnits="userSpaceOnUse" gradientTransform="matrix(300,0,0,278.75,108,175)">
			<stop offset="0" stop-color="#0071f4" stop-opacity="1"/>
			<stop offset="1" stop-color="#005cdc" stop-opacity=".93"/>
		</linearGradient>
		<linearGradient id="g6" x2="1" gradientUnits="userSpaceOnUse" gradientTransform="matrix(300,0,0,408.902,108,175)">
			<stop offset="0" stop-color="#0071f4" stop-opacity="1"/>
			<stop offset="1" stop-color="#005cdc" stop-opacity=".93"/>
		</linearGradient>
	</defs>
	<style>
		.s0 { fill: #ffffff } 
		.s1 { fill: url(#g1) } 
		.s2 { fill: url(#g2) } 
		.s3 { fill: url(#g3) } 
		.s4 { fill: url(#g4) } 
		.s5 { fill: url(#g5) } 
		.s6 { fill: url(#g6) } 
	</style>
	<path fill-rule="evenodd" class="s0" d="m232.1 0.33c1.35 0.62 2.1 1.86 2.1 3.46 0 0.85 0.02 0.9 0.56 1 0.79 0.16 1.73 1.17 1.99 2.14 0.32 1.14 0.12 3.12-0.38 3.93-0.44 0.7-1.29 1.16-2.16 1.16q-0.54 0-0.62 0.32c-1.22 4.37-2.13 11.79-2.42 19.73-0.11 3.07 0.11 12.19 0.47 19.05 0.09 1.81 0.22 4.39 0.28 5.75 0.09 2.21 0.23 4.14 0.83 12.12 0.63 8.46 1.76 14.02 3.58 17.75 1.36 2.8 1.71 3.25 12.3 16.1 5.11 6.2 7.45 9.47 10.06 14.03 5.72 10.01 9 19.92 10.57 31.97l0.38 2.91 0.07 90.33c0.05 84.19 0.04 90.45-0.25 91.98-1.29 6.9-6.23 12.65-12.77 14.86-3.32 1.13-2.14 1.09-31.22 1.08l-26.56-0.01 4.62-1.34c2.53-0.74 4.65-1.37 4.69-1.42 0.12-0.11-0.65-0.45-10.58-4.58-8.99-3.74-11.02-4.5-14.04-5.21-6.16-1.44-7.74-1.87-8.91-2.43-1.36-0.65-3.13-1.95-3.99-2.94l-0.5-0.57-0.01-69.01 0.77-0.82c2.04-2.22 4.04-3.4 9.26-5.46 17.77-6.99 27.88-16.22 32.16-29.35 1.39-4.27 1.93-7.71 2.06-13.21 0.26-10.46-2.1-23.98-5.88-33.67-1.51-3.9-3.03-6.73-5.32-9.93l-1.41-1.98h-31.65l0.04-5.79c0.04-8.97 0.33-12.85 1.37-18.55 2.04-11.21 6.14-21.53 12.37-31.08 1.83-2.81 3.97-5.57 9.65-12.47 3.22-3.9 6.23-7.55 6.68-8.11 3.16-3.86 4.84-7.63 5.82-13.08 0.39-2.16 1.19-9.1 1.37-11.92 0.06-0.95 0.19-2.75 0.29-4.01 0.36-4.74 0.9-14.88 1.08-20.32 0.36-10.78-0.37-21.49-1.92-28.46-0.25-1.12-0.45-2.07-0.45-2.12 0-0.05-0.38-0.14-0.84-0.19-1.6-0.18-2.29-1.08-2.41-3.15-0.12-2.3 0.61-3.74 2.04-4.01l0.66-0.12v-1.13c0-1.46 0.66-2.59 1.85-3.17 0.79-0.38 0.95-0.38 12.19-0.39 10.7 0 11.44 0.02 12.13 0.33zm-32.88 176.08c1.32 2.2 2.33 4.35 3.28 6.97 3.09 8.58 5.11 19.96 5.12 28.81 0 9.02-2.1 15.83-6.84 22.14-1.36 1.81-4.45 4.89-6.53 6.51-4.43 3.44-10.08 6.49-17.04 9.19-5.57 2.16-8.23 3.8-11.16 6.88-3.09 3.25-5.22 7.33-6.17 11.79-0.46 2.15-0.5 4.77-0.29 16.95 0.11 6.27 0.29 17.39 0.39 24.71 0.11 7.32 0.27 14.02 0.37 14.89 0.78 6.84 5.39 13.17 11.69 16.08 1.47 0.68 3.92 1.4 7.54 2.2 4.12 0.91 8.29 2.2 7.99 2.47-0.14 0.12-3.38 0.96-5.89 1.53-11.51 2.58-27.57 3.2-40.11 1.56-4.73-0.62-9.87-1.61-13.59-2.6l-0.91-0.25 1.73-0.66c2.51-0.95 3.8-1.3 9.57-2.6 1.2-0.26 2.76-0.69 3.46-0.94 6.36-2.29 11.21-7.59 12.96-14.18 0.45-1.71 0.49-2.21 0.63-7.57 0.27-10.05 0.62-32.97 0.63-41.84 0.01-8.45 0.01-8.59-0.42-10.3-2.09-8.27-7.52-14.42-15.36-17.38-15.01-5.66-23.62-12.05-28.39-21.08-1.82-3.44-3.09-7.69-3.59-11.94-1.14-9.82 1.18-25.11 5.46-35.99 1.02-2.6 2.47-5.38 3.35-6.44 0.26-0.31 2.42-0.32 40.77-0.32h40.5zm-72.42 3.56c-0.56 0.28-1.22 1.24-1.46 2.11-0.41 1.48-0.11 4.75 0.58 6.4l0.26 0.64 0.22-1.34c0.25-1.53 0.86-2.85 1.87-4.06 0.38-0.46 0.84-1.13 1.01-1.49 0.29-0.61 0.29-0.66-0.09-1.27-0.22-0.35-0.67-0.77-1.01-0.93-0.74-0.35-0.8-0.36-1.38-0.06zm9.52 0.98c-0.38 0.15-0.81 1.16-0.7 1.62 0.14 0.54 0.98 1.54 1.3 1.54 0.14 0 0.46-0.28 0.71-0.61 1.06-1.39 0.16-3.14-1.31-2.55zm8.16 6.09c-0.16 0.29-0.14 0.47 0.09 0.82 0.16 0.24 0.35 0.44 0.43 0.44 0.55 0 0.81-1.33 0.29-1.53-0.47-0.18-0.6-0.13-0.81 0.27zm-8.11 2.15c-2.22 1.38-3.28 4.91-2.84 9.46 0.21 2.18 0.92 5.2 1.59 6.7l0.32 0.73 0.12-1.46c0.26-3.25 1.39-5.89 3.82-8.93 1.61-2.01 2-2.71 2-3.52 0-0.91-1.33-2.53-2.53-3.09-0.71-0.32-1.86-0.28-2.48 0.11zm-15.41 7.66c-1.45 0.47-2.41 1.38-2.74 2.58-0.36 1.35 0.21 3.02 1.66 4.84 2.48 3.12 6.98 5.59 12.57 6.9 1.7 0.4 1.83 0.36 0.9-0.31-3.56-2.53-5.26-4.93-6.93-9.76-0.75-2.19-1.1-2.94-1.63-3.55-0.67-0.75-0.69-0.76-2.03-0.81-0.74-0.02-1.55 0.03-1.8 0.11zm25.17 4.17c-2.34 1.18-2.89 6.06-1.24 10.98l0.39 1.19 0.23-1.57c0.37-2.51 0.96-3.73 3-6.31 1.16-1.46 1.31-2 0.81-2.97-0.35-0.66-1.29-1.38-2.01-1.53q-0.55-0.11-1.18 0.21zm29.72 5.99c-8.28 0.62-13.43 1.92-20.7 5.26-6.39 2.92-9.55 3.94-13.49 4.32-1.85 0.18-5.46 0.1-6.88-0.14-4.03-0.69-6.95-1.43-10.63-2.68-2.29-0.79-7.07-2.67-9.28-3.67l-1.07-0.48 0.1 3.7c0.15 5.51 0.98 9.01 3.17 13.3 5.19 10.17 17.21 16.75 33.61 18.41 2.96 0.3 11.31 0.3 14.23 0 16.19-1.65 27.69-7.68 33.23-17.45 2.08-3.67 3.31-8.05 3.59-12.75 0.19-3.28 0.07-5.16-0.33-5.28-1.85-0.53-10.43-1.83-14.52-2.19-3.22-0.29-9.29-0.48-11.03-0.35zm11.15 7.26c1.57 0.16 3.91 0.45 5.19 0.65 1.29 0.2 2.42 0.36 2.51 0.36 0.36 0.01-0.47 4.04-1.28 6.18-2.52 6.71-8.41 11.57-17.48 14.42-2.02 0.63-4.38 1.24-5.11 1.31l-0.55 0.06-0.04-11.33c-0.05-10.69-0.03-11.35 0.27-11.43 0.18-0.05 1.35-0.19 2.6-0.3 1.25-0.11 2.44-0.24 2.65-0.27 0.84-0.16 8.61 0.09 11.24 0.35z"/>
	<path class="s1" d="m146.13 201.02c-2.34 1.19-2.89 6.06-1.24 10.98l0.39 1.19 0.23-1.57c0.37-2.5 0.96-3.73 3-6.31 1.16-1.46 1.31-2 0.81-2.97-0.35-0.66-1.29-1.38-2.01-1.53q-0.55-0.11-1.18 0.21z"/>
	<path class="s2" d="m136.37 189.19c-2.22 1.38-3.28 4.91-2.84 9.46 0.21 2.18 0.92 5.2 1.59 6.7l0.32 0.73 0.12-1.46c0.26-3.25 1.39-5.88 3.82-8.93 1.61-2.01 2-2.71 2-3.51 0-0.92-1.33-2.54-2.53-3.09-0.71-0.33-1.86-0.28-2.48 0.1z"/>
	<path class="s3" d="m136.32 180.95c-0.38 0.15-0.81 1.16-0.7 1.62 0.14 0.54 0.98 1.54 1.3 1.54 0.14 0 0.46-0.27 0.71-0.61 1.06-1.39 0.16-3.14-1.31-2.55z"/>
	<path class="s4" d="m126.8 179.97c-0.56 0.28-1.22 1.24-1.46 2.12-0.41 1.47-0.12 4.75 0.58 6.39l0.26 0.64 0.22-1.33c0.25-1.54 0.86-2.86 1.87-4.07 0.38-0.46 0.84-1.13 1.01-1.48 0.29-0.62 0.29-0.67-0.09-1.28-0.22-0.35-0.67-0.77-1.01-0.93-0.74-0.35-0.8-0.35-1.38-0.06z"/>
	<path class="s5" d="m120.96 196.85c-1.45 0.47-2.41 1.38-2.74 2.59-0.36 1.34 0.21 3.01 1.66 4.83 2.48 3.12 6.98 5.59 12.57 6.9 1.7 0.4 1.83 0.36 0.9-0.3-3.56-2.54-5.26-4.94-6.93-9.77-0.75-2.19-1.1-2.94-1.63-3.54-0.67-0.76-0.69-0.77-2.03-0.81-0.74-0.03-1.55 0.02-1.8 0.1z"/>
	<path class="s6" d="m144.48 187.04c-0.16 0.29-0.14 0.48 0.09 0.82 0.16 0.24 0.35 0.45 0.43 0.45 0.55 0 0.81-1.34 0.29-1.53-0.47-0.18-0.6-0.14-0.81 0.26z"/>
	<path class="s0" d="m234 0.01c7.67-0.03 18.78 0.01 34.65 0.11 47.74 0.31 50.6 0.41 57.91 1.98 14.78 3.16 24.63 7.17 35.7 14.52 18.32 12.16 30.11 30.33 35.61 54.9 1.6 7.13 1.79 9.93 1.76 25.33-0.02 14.99-0.25 18.27-1.7 24.46-3.73 15.95-10.9 28.65-22.24 39.38-5.67 5.36-6.5 6.45-5.4 7.06 3.25 1.82 12.92 10.2 16.2 14.04 5.17 6.05 11.41 16.29 14.2 23.29 5.45 13.68 7.38 25.23 7.31 43.71-0.12 31.36-8.13 54.53-25.02 72.39-11.04 11.68-24.09 19.56-39.87 24.1-15.31 4.41-19.33 4.68-73.92 4.68 5.43-3.6 7.08-15.9 7.08-15.9 0-0.02 0.16-4.06 0.23-37.28 36.84-0.32 38.26-0.48 42.75-2 5.83-1.97 13.15-6.19 16.79-9.68 12.74-12.21 17.38-38.78 10.55-60.3-3.36-10.61-10.59-19.15-20.03-23.69-9.23-4.44-12.92-5.1-31.36-5.56l-16.73-0.43v-14.84c0-13.52-0.4-20.45-2.02-26.68v-1.85l-0.38-2.91q-0.31-2.39-0.71-4.67c2.1-0.26 6.33-0.4 14.41-0.6 18.25-0.44 22.4-1.14 30.72-5.19 13.75-6.68 21.17-22.35 20.04-42.3-0.77-13.73-4.53-23.36-12.03-30.87-4.43-4.45-7.92-6.58-15.37-9.41-4.12-1.57-5.84-1.64-49.67-2.02l-24.89-0.22c-0.04-0.85-0.08-1.71-0.12-2.44-0.35-6.86-0.58-15.98-0.47-19.05 0.29-7.94 1.2-15.36 2.42-19.73 1.21-4.37 0.61-6.95 0.61-8.55 0-1.6-0.75-2.84-2.1-3.46-0.48-0.22-0.98-0.3-4.91-0.32z"/>
	<path class="s0" d="m7.62 516v-77.33h31.71q8.06 0 13.59 2.54 5.52 2.54 8.28 7.07 2.88 4.42 2.88 10.27 0 5.86-2.54 9.83-2.55 3.98-6.74 6.19-4.09 2.1-9.06 2.43l1.76-1.21q5.31 0.22 9.4 2.87 4.19 2.54 6.51 6.85 2.43 4.31 2.43 9.39 0 6.19-2.98 10.94-2.98 4.75-8.62 7.51-5.63 2.65-13.81 2.65zm14.92-12.15h15.47q6.07 0 9.39-2.76 3.31-2.77 3.31-7.96 0-5.19-3.42-8.06-3.43-2.99-9.51-2.99h-15.24zm0-32.92h14.36q5.86 0 8.84-2.65 3.09-2.65 3.09-7.51 0-4.75-3.09-7.4-2.98-2.77-8.95-2.77h-14.25zm75.97 46.4q-6.74 0-11.6-2.76-4.75-2.87-7.29-8.28-2.54-5.53-2.54-13.59v-32.37h14.91v30.82q0 6.74 2.77 10.17 2.87 3.42 8.72 3.42 3.76 0 6.63-1.66 2.87-1.77 4.53-4.97 1.77-3.31 1.77-8.06v-29.72h14.8v55.68h-13.03l-1.22-9.06q-2.43 4.75-7.18 7.62-4.75 2.76-11.27 2.76zm43.66-1.32v-11.93l28.06-31.38h-27.72v-12.37h44.85v12.04l-28.28 31.27h28.83v12.37zm54.16 0v-11.93l28.06-31.38h-27.73v-12.37h44.85v12.04l-28.28 31.27h28.84v12.37zm92.05 1.32q-11.05 0-19.22-4.86-8.18-4.97-12.71-13.81-4.53-8.95-4.53-20.77 0-11.93 4.64-20.99 4.64-9.17 13.37-14.36 8.73-5.19 20.88-5.19 13.59 0 22.54 6.52 9.06 6.52 11.71 18.11h-16.68q-1.66-5.08-6.19-7.95-4.42-2.98-11.49-2.98-7.51 0-12.82 3.31-5.3 3.32-8.06 9.28-2.76 5.97-2.76 14.25 0 8.4 2.76 14.26 2.76 5.85 7.84 8.94 5.2 2.99 12.16 2.99 10.16 0 15.35-5.42 5.3-5.52 6.3-14.25h-19v-11.16h34.02v42.76h-13.81l-1.1-9.83q-2.43 3.64-5.74 6.18-3.21 2.43-7.52 3.65-4.31 1.32-9.94 1.32zm51.74-1.32v-55.68h13.26l1.43 10.27q1.99-3.64 4.97-6.18 3.1-2.55 6.96-3.98 3.98-1.44 8.73-1.44v15.8h-5.08q-3.32 0-6.19 0.77-2.76 0.78-4.86 2.55-2.1 1.65-3.2 4.64-1.11 2.98-1.11 7.51v25.74zm63.99 1.32q-6.96 0-11.49-2.21-4.53-2.32-6.74-6.07-2.1-3.87-2.1-8.51 0-5.08 2.54-8.95 2.65-3.86 7.84-6.07 5.31-2.21 13.26-2.21h13.81q0-4.09-1.1-6.74-1.11-2.76-3.43-4.09-2.32-1.32-6.18-1.32-4.2 0-7.19 1.87-2.87 1.77-3.53 5.53h-14.47q0.55-5.97 3.86-10.28 3.43-4.42 8.95-6.85 5.64-2.43 12.49-2.43 7.84 0 13.58 2.65 5.75 2.65 8.84 7.63 3.1 4.97 3.1 12.26v34.47h-12.6l-1.66-8.51q-1.21 2.21-2.87 3.98-1.65 1.77-3.86 3.09-2.21 1.33-4.98 1.99-2.76 0.77-6.07 0.77zm3.53-11.49q2.87 0 5.08-0.99 2.33-1.11 3.98-2.87 1.66-1.88 2.54-4.2 1-2.43 1.33-5.19v-0.11h-11.38q-3.43 0-5.63 0.88-2.1 0.77-3.1 2.32-0.99 1.55-0.99 3.54 0 2.21 0.99 3.64 1 1.44 2.87 2.21 1.88 0.77 4.31 0.77zm75.34 11.49q-4.31 0-7.73-1.1-3.32-1.11-5.97-2.98-2.54-1.99-4.31-4.42l-1.65 7.18h-13.26v-79.54h14.91v31.59q2.65-3.86 6.96-6.41 4.42-2.65 10.94-2.65 7.73 0 13.7 3.87 6.08 3.76 9.5 10.38 3.54 6.52 3.54 15.03 0 8.28-3.54 14.91-3.42 6.63-9.39 10.39-5.97 3.75-13.7 3.75zm-3.53-13.03q4.41 0 7.73-1.99 3.42-2.1 5.3-5.64 1.88-3.64 1.88-8.39 0-4.75-1.88-8.4-1.88-3.75-5.3-5.74-3.32-2.1-7.73-2.1-4.31 0-7.74 2.1-3.31 1.99-5.3 5.63-1.88 3.65-1.88 8.4 0 4.75 1.88 8.5 1.99 3.65 5.3 5.64 3.43 1.99 7.74 1.99z"/>
</svg>