<svg width="516" height="550" viewBox="0 0 516 550" fill="none" xmlns="http://www.w3.org/2000/svg">
<path d="M146.128 201.018C143.788 202.205 143.238 207.081 144.887 212.004L145.284 213.189L145.514 211.619C145.881 209.117 146.465 207.888 148.514 205.311C149.672 203.854 149.818 203.315 149.315 202.343C148.973 201.681 148.027 200.959 147.309 200.811C146.953 200.737 146.541 200.809 146.128 201.018Z" fill="#FAAF26"/>
<path d="M136.368 189.194C134.151 190.575 133.091 194.104 133.527 198.649C133.737 200.834 134.453 203.849 135.118 205.35L135.442 206.08L135.56 204.621C135.823 201.374 136.952 198.736 139.383 195.689C140.986 193.68 141.383 192.983 141.383 192.177C141.383 191.263 140.052 189.638 138.853 189.088C138.136 188.759 136.988 188.808 136.368 189.194Z" fill="#FAAF26"/>
<path d="M136.319 180.953C135.943 181.104 135.509 182.112 135.624 182.568C135.761 183.113 136.601 184.112 136.922 184.112C137.059 184.112 137.38 183.838 137.635 183.503C138.695 182.113 137.791 180.361 136.319 180.953Z" fill="#FAAF26"/>
<path d="M126.801 179.97C126.244 180.252 125.583 181.209 125.339 182.085C124.93 183.559 125.225 186.836 125.915 188.484L126.181 189.118L126.401 187.786C126.654 186.254 127.262 184.93 128.266 183.723C128.652 183.259 129.107 182.59 129.275 182.237C129.57 181.619 129.567 181.57 129.188 180.958C128.972 180.609 128.517 180.191 128.178 180.03C127.441 179.68 127.379 179.677 126.801 179.97Z" fill="#FAAF26"/>
<path d="M120.959 196.852C119.509 197.322 118.547 198.231 118.222 199.436C117.859 200.784 118.431 202.453 119.877 204.27C122.361 207.392 126.859 209.862 132.448 211.174C134.151 211.574 134.28 211.529 133.347 210.865C129.789 208.333 128.087 205.931 126.424 201.101C125.67 198.91 125.324 198.159 124.789 197.557C124.118 196.8 124.095 196.791 122.763 196.748C122.022 196.724 121.21 196.771 120.959 196.852Z" fill="#FAAF26"/>
<path d="M144.476 187.041C144.319 187.334 144.339 187.517 144.565 187.862C144.725 188.105 144.919 188.305 144.997 188.305C145.552 188.305 145.805 186.974 145.288 186.775C144.825 186.597 144.69 186.642 144.476 187.041Z" fill="#FAAF26"/>
<path d="M234 0.0104198C241.672 -0.0214772 252.776 0.0225692 268.652 0.124714C316.391 0.432453 319.246 0.530176 326.558 2.09656C341.338 5.26396 351.193 9.27225 362.255 16.6164C380.585 28.7844 392.371 46.9526 397.873 71.5217C399.47 78.6534 399.664 81.4462 399.635 96.8477C399.607 111.838 399.379 115.117 397.93 121.31C394.201 137.256 387.026 149.959 375.691 160.686C370.025 166.047 369.193 167.137 370.292 167.753C373.539 169.569 383.208 177.948 386.488 181.787C391.664 187.844 397.904 198.076 400.69 205.076C406.138 218.763 408.068 230.307 407.998 248.794C407.88 280.152 399.872 303.325 382.983 321.18C371.936 332.86 358.893 340.744 343.107 345.284C327.799 349.687 323.784 349.959 269.195 349.962C274.615 346.36 276.273 334.055 276.273 334.055C276.273 334.042 276.429 330.001 276.495 296.777C313.336 296.458 314.756 296.296 319.252 294.777C325.081 292.807 332.404 288.586 336.044 285.095C348.778 272.89 353.424 246.325 346.59 224.796C343.225 214.195 335.997 205.647 326.562 201.108C317.327 196.666 313.637 196.011 295.204 195.546L278.467 195.123V180.277C278.467 166.759 278.073 159.829 276.455 153.596L276.454 151.753L276.072 148.837C275.864 147.245 275.626 145.691 275.356 144.169C277.462 143.908 281.686 143.769 289.774 143.572C308.02 143.128 312.172 142.426 320.488 138.382C334.237 131.696 341.66 116.029 340.533 96.0784C339.757 82.3503 336.004 72.7187 328.505 65.2084C324.068 60.7647 320.585 58.6319 313.133 55.7969C309.012 54.2297 307.288 54.1597 263.461 53.7766L238.573 53.5589C238.531 52.7081 238.488 51.8519 238.451 51.1229C238.095 44.2605 237.87 35.14 237.982 32.0724C238.272 24.1297 239.18 16.7071 240.397 12.3382C241.613 7.96937 241.008 5.38646 241.008 3.78695C241.008 2.1875 240.259 0.954137 238.911 0.33194C238.432 0.110906 237.926 0.0346884 234 0.0104198Z" fill="url(#paint0_linear_350_40991)"/>
<path fill-rule="evenodd" clip-rule="evenodd" d="M199.216 176.41C200.539 178.61 201.552 180.763 202.496 183.383C205.586 191.956 207.61 203.344 207.616 212.187C207.622 221.207 205.519 228.016 200.776 234.332C199.419 236.139 196.328 239.221 194.25 240.837C189.821 244.283 184.173 247.329 177.213 250.027C171.64 252.188 168.981 253.828 166.05 256.913C162.962 260.164 160.83 264.238 159.881 268.7C159.424 270.851 159.38 273.468 159.594 285.654C159.704 291.921 159.879 303.037 159.984 310.356C160.088 317.676 160.255 324.377 160.354 325.249C161.133 332.086 165.738 338.425 172.041 341.334C173.509 342.012 175.959 342.725 179.584 343.53C183.699 344.444 187.869 345.733 187.57 345.999C187.431 346.123 184.185 346.965 181.681 347.527C170.167 350.11 154.113 350.735 141.565 349.09C136.842 348.47 131.697 347.485 127.98 346.488L127.069 346.244L128.801 345.584C131.308 344.628 132.602 344.276 138.367 342.985C139.566 342.717 141.125 342.29 141.831 342.036C148.19 339.753 153.039 334.446 154.787 327.857C155.238 326.155 155.28 325.654 155.424 320.292C155.694 310.243 156.036 287.321 156.049 278.453C156.061 270.002 156.055 269.861 155.625 268.153C153.542 259.876 148.114 253.73 140.274 250.772C125.26 245.107 116.652 238.716 111.88 229.688C110.063 226.25 108.786 222 108.29 217.747C107.147 207.935 109.466 192.645 113.748 181.756C114.767 179.165 116.219 176.379 117.104 175.316C117.228 175.167 117.819 175.087 123 175.045C118.787 177.881 115.113 199.276 113.802 209.619L113.9 213.318C114.046 218.838 114.877 222.329 117.071 226.628C122.256 236.792 134.282 243.378 150.682 245.033C153.642 245.332 161.989 245.335 164.905 245.037C181.105 243.387 192.604 237.348 198.136 227.586C200.215 223.916 201.449 219.531 201.727 214.828C201.92 211.558 201.801 209.676 201.395 209.558C200.597 201.039 198.2 182.2 193 175L123 175.045C128.313 175.001 138.453 174.997 157.868 174.997H198.366L199.216 176.41Z" fill="url(#paint1_linear_350_40991)"/>
<path fill-rule="evenodd" clip-rule="evenodd" d="M232.099 0.331959C233.448 0.954155 234.196 2.18761 234.196 3.78712C234.196 4.64121 234.222 4.68678 234.76 4.79452C235.55 4.9524 236.491 5.95816 236.754 6.92582C237.065 8.07377 236.871 10.0466 236.366 10.8632C235.934 11.5628 235.084 12.0193 234.214 12.0193C233.855 12.0193 233.644 12.1261 233.585 12.3383C232.368 16.7072 231.46 24.1298 231.17 32.0725C231.059 35.1401 231.283 44.2607 231.639 51.123C231.733 52.9278 231.858 55.512 231.918 56.8655C232.015 59.0778 232.148 61.0133 232.747 68.9886C233.384 77.4512 234.505 83.0124 236.327 86.7446C237.69 89.5369 238.035 89.9891 248.625 102.839C253.74 109.044 256.081 112.309 258.688 116.872C264.406 126.878 267.685 136.793 269.261 148.837L269.642 151.754L269.706 242.084C269.765 326.268 269.748 332.526 269.461 334.055C268.165 340.96 263.23 346.706 256.695 348.922C256.577 348.961 256.466 349 256.359 349.036C256.044 349.144 255.765 349.24 255.482 349.325C253.216 350.009 250.742 350.007 228.428 349.998C227.477 349.998 226.49 349.997 225.465 349.997L198.912 349.987L203.527 348.65C206.065 347.914 208.178 347.276 208.222 347.232C208.337 347.117 207.567 346.783 197.636 342.648C188.651 338.906 186.617 338.152 183.595 337.443C177.435 335.997 175.864 335.567 174.685 335.008C173.328 334.363 171.555 333.059 170.7 332.074L170.203 331.503L170.193 262.494L170.955 261.667C172.999 259.451 175.001 258.273 180.222 256.215C197.985 249.217 208.097 239.986 212.379 226.862C213.773 222.591 214.311 219.148 214.444 213.645C214.697 203.194 212.335 189.672 208.564 179.978C207.046 176.076 205.533 173.253 203.242 170.049L201.83 168.074L170.184 168.07L170.216 162.282C170.265 153.305 170.551 149.434 171.587 143.732C173.626 132.517 177.733 122.197 183.956 112.65C185.79 109.837 187.925 107.08 193.613 100.18C196.829 96.279 199.835 92.6284 200.294 92.0673C203.451 88.2105 205.13 84.4374 206.11 78.9944C206.501 76.8263 207.297 69.8888 207.479 67.0744C207.54 66.1219 207.67 64.3171 207.766 63.0638C208.131 58.3165 208.672 48.1758 208.851 42.7372C209.205 31.9644 208.482 21.2538 206.931 14.2762C206.683 13.1611 206.48 12.2078 206.48 12.1579C206.48 12.1077 206.101 12.0241 205.638 11.9719C204.038 11.7914 203.345 10.8859 203.232 8.82374C203.106 6.52 203.836 5.08001 205.267 4.81148L205.933 4.68659V3.5576C205.933 2.09736 206.592 0.967282 207.778 0.392667C208.566 0.0109269 208.734 0.00545766 219.973 0.000535509C230.674 -0.00420434 231.414 0.0160299 232.099 0.331959Z" fill="url(#paint2_linear_350_40991)"/>
<path fill-rule="evenodd" clip-rule="evenodd" d="M155.15 212.27C162.423 208.936 167.565 207.63 175.846 207.015C177.594 206.885 183.663 207.074 186.878 207.359C190.965 207.721 199.55 209.021 201.395 209.558C200.597 201.039 198.2 182.2 193 175L123 175.045C118.787 177.881 115.113 199.276 113.802 209.619L114.874 210.102C117.083 211.098 121.862 212.987 124.151 213.768C127.825 215.023 130.754 215.762 134.778 216.452C136.198 216.696 139.806 216.768 141.656 216.59C145.597 216.211 148.762 215.197 155.15 212.27ZM125.339 182.085C125.583 181.209 126.244 180.252 126.801 179.97C127.379 179.677 127.441 179.68 128.178 180.03C128.517 180.191 128.972 180.609 129.188 180.958C129.567 181.57 129.57 181.619 129.275 182.237C129.107 182.59 128.652 183.259 128.266 183.723C127.262 184.93 126.654 186.254 126.401 187.786L126.181 189.118L125.915 188.484C125.225 186.836 124.93 183.559 125.339 182.085ZM135.624 182.568C135.509 182.112 135.943 181.104 136.319 180.953C137.791 180.361 138.695 182.113 137.635 183.503C137.38 183.838 137.059 184.112 136.922 184.112C136.601 184.112 135.761 183.113 135.624 182.568ZM144.565 187.862C144.339 187.517 144.319 187.334 144.476 187.041C144.69 186.642 144.825 186.597 145.288 186.775C145.805 186.974 145.552 188.305 144.997 188.305C144.919 188.305 144.725 188.105 144.565 187.862ZM133.527 198.649C133.091 194.104 134.151 190.575 136.368 189.194C136.988 188.808 138.136 188.759 138.853 189.088C140.052 189.638 141.383 191.263 141.383 192.177C141.383 192.983 140.986 193.68 139.383 195.689C136.952 198.736 135.823 201.374 135.56 204.621L135.442 206.08L135.118 205.35C134.453 203.849 133.737 200.834 133.527 198.649ZM118.222 199.436C118.547 198.231 119.509 197.322 120.959 196.852C121.21 196.771 122.022 196.724 122.763 196.748C124.095 196.791 124.118 196.8 124.789 197.557C125.324 198.159 125.67 198.91 126.424 201.101C128.087 205.931 129.789 208.333 133.347 210.865C134.28 211.529 134.151 211.574 132.448 211.174C126.859 209.862 122.361 207.392 119.877 204.27C118.431 202.453 117.859 200.784 118.222 199.436ZM144.887 212.004C143.238 207.081 143.788 202.205 146.128 201.018C146.541 200.809 146.953 200.737 147.309 200.811C148.027 200.959 148.973 201.681 149.315 202.343C149.818 203.315 149.672 203.854 148.514 205.311C146.465 207.888 145.881 209.117 145.514 211.619L145.284 213.189L144.887 212.004Z" fill="#FAAF26"/>
<path d="M186.998 214.273C188.568 214.43 190.907 214.722 192.194 214.921C193.482 215.119 194.608 215.283 194.696 215.284C195.06 215.288 194.228 219.323 193.422 221.464C190.895 228.178 185.01 233.029 175.937 235.879C173.923 236.511 171.564 237.12 170.831 237.196L170.284 237.253L170.237 225.918C170.193 215.236 170.209 214.577 170.511 214.492C170.687 214.442 171.857 214.308 173.111 214.193C174.364 214.078 175.554 213.955 175.755 213.918C176.601 213.764 184.366 214.009 186.998 214.273Z" fill="#FAAF26"/>
<path d="M7.62286 516V438.667H39.3295C44.706 438.667 49.2356 439.514 52.9181 441.208C56.6006 442.902 59.3625 445.258 61.2038 448.278C63.1187 451.224 64.0762 454.649 64.0762 458.552C64.0762 462.456 63.2292 465.733 61.5352 468.385C59.8413 471.036 57.5949 473.098 54.7962 474.571C52.0711 475.971 49.0514 476.781 45.7371 477.002L47.5048 475.787C51.04 475.934 54.1702 476.891 56.8952 478.659C59.694 480.353 61.8667 482.636 63.4133 485.509C65.0337 488.381 65.8438 491.511 65.8438 494.899C65.8438 499.023 64.8495 502.669 62.861 505.836C60.8724 509.003 58 511.507 54.2438 513.349C50.4876 515.116 45.8844 516 40.4343 516H7.62286ZM22.5371 503.848H38.0038C42.0546 503.848 45.1848 502.927 47.3943 501.086C49.6038 499.244 50.7086 496.593 50.7086 493.131C50.7086 489.67 49.567 486.982 47.2838 485.067C45.0006 483.078 41.8337 482.084 37.7829 482.084H22.5371V503.848ZM22.5371 470.926H36.899C40.8025 470.926 43.7486 470.042 45.7371 468.274C47.7994 466.507 48.8305 464.003 48.8305 460.762C48.8305 457.595 47.7994 455.128 45.7371 453.36C43.7486 451.519 40.7657 450.598 36.7886 450.598H22.5371V470.926ZM98.5111 517.326C94.0184 517.326 90.1517 516.405 86.9111 514.564C83.7441 512.649 81.3136 509.887 79.6197 506.278C77.9257 502.596 77.0787 498.066 77.0787 492.69V460.32H91.993V491.143C91.993 495.636 92.9136 499.023 94.7549 501.307C96.6698 503.59 99.579 504.731 103.483 504.731C105.987 504.731 108.196 504.179 110.111 503.074C112.026 501.896 113.536 500.239 114.641 498.103C115.819 495.893 116.408 493.205 116.408 490.038V460.32H131.212V516H118.176L116.961 506.941C115.34 510.108 112.947 512.649 109.78 514.564C106.613 516.405 102.857 517.326 98.5111 517.326ZM142.173 516V504.069L170.233 472.693H142.504V460.32H187.357V472.362L159.075 503.627H187.91V516H142.173ZM196.332 516V504.069L224.393 472.693H196.663V460.32H241.516V472.362L213.235 503.627H242.069V516H196.332ZM288.384 517.326C281.019 517.326 274.612 515.705 269.161 512.465C263.711 509.15 259.476 504.547 256.457 498.655C253.437 492.69 251.927 485.766 251.927 477.886C251.927 469.931 253.474 462.935 256.567 456.895C259.66 450.782 264.116 445.995 269.935 442.533C275.753 439.072 282.713 437.341 290.815 437.341C299.874 437.341 307.386 439.514 313.352 443.859C319.391 448.204 323.295 454.244 325.062 461.977H308.38C307.276 458.589 305.214 455.938 302.194 454.023C299.248 452.034 295.418 451.04 290.704 451.04C285.696 451.04 281.424 452.145 277.889 454.354C274.354 456.564 271.666 459.657 269.824 463.634C267.983 467.611 267.062 472.362 267.062 477.886C267.062 483.483 267.983 488.234 269.824 492.137C271.666 496.041 274.28 499.023 277.668 501.086C281.13 503.074 285.18 504.069 289.82 504.069C296.596 504.069 301.715 502.264 305.177 498.655C308.712 494.973 310.811 490.222 311.474 484.404H292.472V473.246H326.499V516H312.689L311.584 506.168C309.964 508.598 308.049 510.66 305.84 512.354C303.704 513.975 301.2 515.19 298.327 516C295.455 516.884 292.14 517.326 288.384 517.326ZM340.123 516V460.32H353.38L354.816 470.594C356.142 468.164 357.799 466.102 359.787 464.408C361.85 462.714 364.17 461.388 366.747 460.43C369.399 459.473 372.308 458.994 375.475 458.994V474.792H370.393C368.183 474.792 366.121 475.05 364.206 475.566C362.365 476.081 360.745 476.928 359.345 478.107C357.946 479.211 356.878 480.758 356.142 482.747C355.405 484.735 355.037 487.239 355.037 490.259V516H340.123ZM404.108 517.326C399.468 517.326 395.638 516.589 392.619 515.116C389.599 513.57 387.353 511.544 385.88 509.04C384.48 506.462 383.78 503.627 383.78 500.533C383.78 497.145 384.627 494.163 386.321 491.585C388.089 489.007 390.704 486.982 394.165 485.509C397.7 484.036 402.12 483.299 407.422 483.299H421.232C421.232 480.574 420.864 478.328 420.127 476.56C419.391 474.719 418.249 473.356 416.702 472.472C415.156 471.589 413.093 471.147 410.516 471.147C407.717 471.147 405.323 471.773 403.335 473.025C401.42 474.203 400.241 476.044 399.8 478.549H385.327C385.695 474.571 386.984 471.147 389.194 468.274C391.477 465.328 394.46 463.045 398.142 461.425C401.899 459.804 406.06 458.994 410.626 458.994C415.855 458.994 420.385 459.878 424.215 461.646C428.045 463.413 430.991 465.954 433.053 469.269C435.115 472.583 436.146 476.67 436.146 481.531V516H423.552L421.895 507.493C421.085 508.966 420.127 510.292 419.022 511.47C417.918 512.649 416.629 513.68 415.156 514.564C413.683 515.448 412.026 516.11 410.184 516.552C408.343 517.068 406.318 517.326 404.108 517.326ZM407.643 505.836C409.558 505.836 411.252 505.505 412.725 504.842C414.272 504.105 415.598 503.148 416.702 501.97C417.807 500.717 418.654 499.318 419.243 497.771C419.906 496.151 420.348 494.42 420.569 492.579V492.469H409.19C406.907 492.469 405.029 492.763 403.556 493.352C402.156 493.868 401.125 494.641 400.462 495.672C399.8 496.703 399.468 497.882 399.468 499.208C399.468 500.681 399.8 501.896 400.462 502.853C401.125 503.811 402.083 504.547 403.335 505.063C404.587 505.578 406.023 505.836 407.643 505.836ZM482.981 517.326C480.109 517.326 477.531 516.957 475.248 516.221C473.038 515.484 471.05 514.49 469.282 513.238C467.588 511.912 466.152 510.439 464.974 508.819L463.316 516H450.059V436.457H464.974V468.053C466.741 465.476 469.061 463.34 471.934 461.646C474.88 459.878 478.525 458.994 482.871 458.994C488.026 458.994 492.593 460.283 496.57 462.861C500.621 465.365 503.788 468.827 506.071 473.246C508.428 477.591 509.606 482.599 509.606 488.27C509.606 493.794 508.428 498.766 506.071 503.185C503.788 507.604 500.657 511.065 496.68 513.57C492.703 516.074 488.137 517.326 482.981 517.326ZM479.446 504.29C482.392 504.29 484.97 503.627 487.179 502.301C489.462 500.902 491.23 499.023 492.482 496.667C493.734 494.236 494.36 491.437 494.36 488.27C494.36 485.103 493.734 482.305 492.482 479.874C491.23 477.37 489.462 475.455 487.179 474.13C484.97 472.73 482.392 472.03 479.446 472.03C476.574 472.03 473.996 472.73 471.713 474.13C469.503 475.455 467.735 477.333 466.41 479.764C465.158 482.194 464.532 484.993 464.532 488.16C464.532 491.327 465.158 494.163 466.41 496.667C467.735 499.097 469.503 500.975 471.713 502.301C473.996 503.627 476.574 504.29 479.446 504.29Z" fill="#0071F4"/>
<defs>
<linearGradient id="paint0_linear_350_40991" x1="108" y1="175" x2="408" y2="175" gradientUnits="userSpaceOnUse">
<stop stop-color="#0071F4"/>
<stop offset="1" stop-color="#005CDC" stop-opacity="0.933333"/>
</linearGradient>
<linearGradient id="paint1_linear_350_40991" x1="108" y1="175" x2="408" y2="175" gradientUnits="userSpaceOnUse">
<stop stop-color="#0071F4"/>
<stop offset="1" stop-color="#005CDC" stop-opacity="0.933333"/>
</linearGradient>
<linearGradient id="paint2_linear_350_40991" x1="108" y1="175" x2="408" y2="175" gradientUnits="userSpaceOnUse">
<stop stop-color="#0071F4"/>
<stop offset="1" stop-color="#005CDC" stop-opacity="0.933333"/>
</linearGradient>
</defs>
</svg>
